PathFileType	4	(X/Y/Z)	Patient4_TMGait_0pt6_01_left_36.trc.trc
DataRate	CameraRate	NumFrames	NumMarkers	Units	OrigDataRate	OrigDataStartFrame	OrigNumFrames
80.924855491330	80.924855491330	4	33	mm	80.924855491330	1	       141
Frame#	Time	Sacral			L.Shoulder			Chest			R.Shoulder			Neck			R.ASIS			L.ASIS			R.Thigh.Superior			R.Thigh.Lateral			R.Thigh.Inferior			R.Patella			L.Thigh.Superior			L.Thigh.Lateral			L.Thigh.Inferior			L.Patella			L.Shank.Superior			L.Shank.Lateral			L.Shank.Inferior			R.Shank.Superior			R.Shank.Lateral			R.Shank.Inferior			R.Heel			R.Midfoot.Superior			R.Midfoot.Lateral			R.Toe			L.Heel			L.Midfoot.Lateral			L.Midfoot.Superior			L.Toe			L.Elbow			L.Wrist			R.Elbow			R.Wrist			
		X1	Y1	Z1	X2	Y2	Z2	X3	Y3	Z3	X4	Y4	Z4	X5	Y5	Z5	X6	Y6	Z6	X7	Y7	Z7	X8	Y8	Z8	X9	Y9	Z9	X10	Y10	Z10	X11	Y11	Z11	X12	Y12	Z12	X13	Y13	Z13	X14	Y14	Z14	X15	Y15	Z15	X16	Y16	Z16	X17	Y17	Z17	X18	Y18	Z18	X19	Y19	Z19	X20	Y20	Z20	X21	Y21	Z21	X22	Y22	Z22	X23	Y23	Z23	X24	Y24	Z24	X25	Y25	Z25	X26	Y26	Z26	X27	Y27	Z27	X28	Y28	Z28	X29	Y29	Z29	X30	Y30	Z30	X31	Y31	Z31	X32	Y32	Z32	X33	Y33	Z33	

1	43.820000000000	783.652505441812	1009.500038015859	510.106727599026	932.216085306882	1433.868378973014	306.231796209856	1054.542438992645	1371.870203783620	455.565017672720	989.755989323756	1445.237183192419	636.514262746025	928.811136268357	1496.924615722937	460.016539073701	1019.689847770815	945.417264982097	605.826209974062	980.073116465775	965.399280963351	335.505828510634	1053.495334997575	740.999267534722	570.781340892624	971.002839222332	633.885817841565	633.363744214901	1038.240797901805	580.645641914554	546.535962994423	1034.537563074947	492.073342575142	550.042022113169	1072.797472257160	788.533381303091	366.078976461354	1034.139148068979	660.996213267282	289.692553447552	1142.451802445994	604.999952440494	348.150548910313	1162.431045696657	518.569376886216	340.838831091817	1107.015809053240	444.800793961830	333.945171338092	973.887746159303	375.264119256786	292.825063145501	992.959705161824	244.196453245810	343.647388595532	1006.431737639350	404.086651564788	556.973023151526	936.554925116879	299.999616000406	619.075939121986	973.635244792241	206.301787541132	551.679245393599	835.772204536310	42.466104332819	522.206394121440	1006.775965318693	95.738794787825	553.922134833234	919.669078485676	36.821101245151	596.162626821721	1127.992033743384	42.942836076888	582.521475824495	822.379798063961	138.879732448138	391.560930687313	882.569625851013	110.627872385147	305.042680686249	985.589859878980	138.856909489872	320.338456844437	1082.162927244189	46.436063792842	279.945655435943	918.284706050070	1069.566809536541	210.386663716694	984.113686905964	818.270927638839	214.203143516686	1019.129902301022	1100.499506926199	766.925268305713	1229.010889781988	951.112019412780	725.630399160501	
2	43.832357142857	782.224941569297	1009.648006008411	511.451009692987	930.388621243549	1433.472673630799	306.631984943431	1053.590966776341	1371.479287139798	455.227516316071	990.204747397222	1445.365372359575	636.471538940310	928.187264711199	1496.761931623430	460.234748262415	1018.466128034282	944.850177660220	605.889713481251	977.882257871068	965.688908917996	335.559659293394	1050.452561103005	740.155767856972	570.118792177650	967.848091059030	633.642199894460	633.472783523854	1034.164135299940	579.982696153196	546.432315414148	1029.689880270196	491.309650827840	550.038068731695	1071.012703236668	789.478151798588	366.226760213504	1032.393312928003	661.547773836385	290.134609477449	1140.309662968443	605.878523706814	349.210845776940	1161.666694892030	521.754600571448	341.849791395245	1111.224594143286	447.331649489447	334.126865343732	985.594481630051	368.712410089928	291.678600108915	1014.562465881860	240.300227417986	342.149229597904	1000.896357982204	403.379159663475	556.941086073832	930.473225473450	299.758440931945	619.018606389733	966.779313713696	205.830491233879	551.586172331195	827.920528091996	42.520356450461	522.214370531094	999.089402705053	95.856768517734	554.164362414594	911.819741713606	36.814033030824	596.156712903238	1120.138932905274	42.738743409412	582.602486861471	854.875975575267	122.230560928746	388.774061690168	916.517023996134	99.976479233488	302.330965216998	1015.774274682058	135.983449268644	318.304134309357	1118.505267608827	52.968049318306	277.785542954324	910.208494557487	1069.525977944815	211.263911774035	964.497384920187	816.691192391213	215.845928627548	1028.542528841945	1102.532954569931	767.096626227017	1246.286738544601	973.735962174780	720.742986894709	
3	43.844714285714	780.831350940886	1009.780789796886	512.745669830233	928.617866225404	1433.095097391829	307.018884028431	1052.662462200292	1371.080652338767	454.888551840333	990.640198045581	1445.466739537044	636.423364928275	927.582368842405	1496.594496790190	460.444454344579	1017.255054093220	944.285838592319	605.918139277183	975.738016736357	965.942776738558	335.591253191822	1047.481347731204	739.317215636798	569.501982248701	964.706206931388	633.394275720602	633.573742164639	1030.126523676645	579.311344991454	546.344278179020	1024.886717321281	490.551389229595	550.038009162154	1069.143814348117	790.235306797105	366.343503730777	1030.484250008881	661.990526835910	290.468266722192	1137.944059456001	606.561092465919	350.247248753168	1160.676953655271	524.812508695605	342.870659080802	1115.202113313448	449.844085240192	334.344464842466	997.270399279919	362.346630628539	290.459578762791	1035.918275516524	236.769039775852	340.758580570683	995.423579225682	402.683198705124	556.911146308058	924.449166418126	299.522186738093	618.963644866229	959.988471303807	205.366852883482	551.495230260623	820.146532202385	42.571141285021	522.224824615003	991.465831994095	95.953471784988	554.376390343160	904.047861279040	36.806881890634	596.152585245787	1112.364880541433	42.534976640849	582.686034076690	887.191775688759	106.277215154285	385.957532796699	950.360754955591	89.934744050900	299.738004946154	1045.700730953067	133.586196818948	316.487137311305	1154.433527717972	59.978164744964	276.164669886013	902.148304622643	1069.554895531836	212.102564004980	945.240738039468	815.282976998054	217.508293910356	1037.891631091676	1104.549285542785	767.164693284257	1263.057744113048	996.251002578030	715.837645944743	
4	43.857071428571	779.497238654460	1009.890109421238	513.934928123911	926.945277757734	1432.758992294657	307.374565711077	1051.772280001953	1370.673329840033	454.538614294422	991.049183038562	1445.521821696936	636.355001688995	927.005330219871	1496.424379512884	460.631037115593	1016.067121886840	943.730555114055	605.865610902154	973.673761489757	966.138318729385	335.565608256420	1044.620937384233	738.486755398964	568.950978776884	961.567628794624	633.139847346625	633.649500676880	1026.134544980056	578.624203717161	546.271466825895	1020.135625615898	489.805583449301	550.034719045652	1067.127358835287	790.681753574290	366.395495067051	1028.302718593027	662.250041164489	290.611889116763	1135.210295220446	606.916148528704	351.221054061125	1159.311354751005	527.648447222637	343.884352873434	1118.755918062702	452.325842199244	334.610049157111	1008.811594701008	356.362521054515	289.148385582632	1056.716050439331	233.929433323425	339.569857876077	990.036087141799	402.012374512951	556.878223852810	918.498584157713	299.301147555389	618.908606204942	953.284568401767	204.922049219352	551.406886690142	812.481418429181	42.621601131303	522.239372826451	983.927587267845	96.015591373289	554.538390511754	896.383517041177	36.801375948547	596.149670958138	1104.701517421551	42.331054080909	582.774119359448	919.009259877388	91.691105964572	383.168348109558	983.802356994227	81.054561877053	297.403999963826	1074.993388080937	132.063008199456	315.060530665343	1189.402148576718	67.791799125996	275.450982579902	894.103734700778	1069.732353570250	212.874854484345	926.650377814787	814.211327504741	219.210327410009	1047.142733602687	1106.561032390383	767.007865814695	1278.835204885195	1018.581202871055	710.880544094201	
